<svg xmlns="http://www.w3.org/2000/svg" x="0" y="0" width="178.71" height="66.85" viewBox="0 0 178.71 66.85">
	<defs>
		<style>
			.cls-1 {
				fill: #b052f2;
			}
		</style>
	</defs>
	<g id="レイヤー_2" data-name="レイヤー 2">
		<g id="レイヤー_1-2" data-name="レイヤー 1">
			<path class="cls-1" d="M63.67,40.71H75v1.58H63.67Z" />
			<path class="cls-1"
				d="M84.05,29.48h1.37l.21,4h.1a24.21,24.21,0,0,1,4-3.3,8.44,8.44,0,0,1,4.67-1.32q3.89,0,5.72,2.31c1.23,1.54,1.84,4,1.84,7.24V54.57h-1.58v-16c0-2.79-.47-4.88-1.41-6.24a5.28,5.28,0,0,0-4.67-2A7.85,7.85,0,0,0,90,31.58a24.83,24.83,0,0,0-4.38,3.78V54.57H84.05Z" />
			<path class="cls-1"
				d="M112.49,23.08a1.73,1.73,0,0,1-1.26-.5,1.68,1.68,0,0,1-.52-1.28,1.66,1.66,0,0,1,.52-1.34,2,2,0,0,1,2.52,0,1.66,1.66,0,0,1,.53,1.34,1.69,1.69,0,0,1-.53,1.28A1.73,1.73,0,0,1,112.49,23.08Zm-.84,6.4h1.58V54.57h-1.58Z" />
			<path class="cls-1"
				d="M123.3,29.48h1.37l.21,4h.1a24.21,24.21,0,0,1,4-3.3,8.44,8.44,0,0,1,4.67-1.32q3.88,0,5.72,2.31c1.23,1.54,1.84,4,1.84,7.24V54.57h-1.58v-16c0-2.79-.47-4.88-1.41-6.24a5.28,5.28,0,0,0-4.67-2,7.85,7.85,0,0,0-4.33,1.26,24.83,24.83,0,0,0-4.38,3.78V54.57H123.3Z" />
			<path class="cls-1"
				d="M147.33,66.85a7.76,7.76,0,0,1-1.62-.19,7.49,7.49,0,0,1-1.42-.44l.42-1.37c.32.11.72.22,1.21.34a6.39,6.39,0,0,0,1.52.19,3.35,3.35,0,0,0,1.78-.42,2.74,2.74,0,0,0,1.05-1.18,5.76,5.76,0,0,0,.5-1.81,17.87,17.87,0,0,0,.13-2.26V29.48h1.58V59.92q0,3.61-1.26,5.27A4.59,4.59,0,0,1,147.33,66.85Zm4.41-43.77a1.73,1.73,0,0,1-1.26-.5A1.68,1.68,0,0,1,150,21.3a1.66,1.66,0,0,1,.52-1.34A2,2,0,0,1,153,20a1.66,1.66,0,0,1,.53,1.34,1.69,1.69,0,0,1-.53,1.28A1.73,1.73,0,0,1,151.74,23.08Z" />
			<path class="cls-1"
				d="M167.9,55.2a9.73,9.73,0,0,1-2.78-.4,6.69,6.69,0,0,1-2.31-1.2,5.75,5.75,0,0,1-1.57-2.1,7.38,7.38,0,0,1-.58-3.07,6.91,6.91,0,0,1,4-6.38q4-2.17,12.49-3.12a17.63,17.63,0,0,0-.18-3.07,8.43,8.43,0,0,0-.92-2.78,5.49,5.49,0,0,0-1.92-2,6,6,0,0,0-3.17-.76,11.12,11.12,0,0,0-2.57.29,12.76,12.76,0,0,0-2.26.76,19,19,0,0,0-1.92,1,13.08,13.08,0,0,0-1.44,1l-.84-1.26c.39-.28.88-.61,1.5-1a15.76,15.76,0,0,1,2.1-1.08,17.11,17.11,0,0,1,2.59-.84,13,13,0,0,1,2.94-.34,8.06,8.06,0,0,1,3.68.76,6.34,6.34,0,0,1,2.36,2.08,8.64,8.64,0,0,1,1.26,3,17.44,17.44,0,0,1,.36,3.6V54.57h-1.36l-.21-3.36H177a27.28,27.28,0,0,1-4.3,2.78A10.35,10.35,0,0,1,167.9,55.2Zm.11-1.47a9.84,9.84,0,0,0,4.46-1.08,23.81,23.81,0,0,0,4.67-3.23V40.29a56.64,56.64,0,0,0-7,1.18,18.21,18.21,0,0,0-4.57,1.71,6.71,6.71,0,0,0-2.49,2.28,5.59,5.59,0,0,0-.76,2.91,6.24,6.24,0,0,0,.45,2.5A4.22,4.22,0,0,0,164,52.52a5,5,0,0,0,1.81.92A8.09,8.09,0,0,0,168,53.73Z" />
			<path class="cls-1"
				d="M58.75,0H29.38A29.34,29.34,0,0,0,5.09,12.85H36.91L30.73,20.2H1.47A29.37,29.37,0,0,0,47.71,52.32l-7.32-2.75L25.7,55.08l5.51-14.69L25.7,25.7l14.69,5.51L55.08,25.7,49.57,40.39l2.75,7.32A29.36,29.36,0,0,0,50.87,9.36Z" />
			<circle class="cls-1" cx="40.39" cy="40.39" r="4.79" transform="translate(-5.95 6.99) rotate(-9.22)" />
		</g>
	</g>
</svg>